<svg width="57" height="57" viewBox="0 0 57 57" fill="none" xmlns="http://www.w3.org/2000/svg">
<path d="M24.1201 6.12639C25.2681 5.87633 26.4615 5.72857 27.6663 5.66037V0C25.95 0.0681975 24.2792 0.295507 22.6538 0.659227L24.1201 6.12639Z" fill="url(#paint0_linear_479_2948)"/>
<path d="M13.7653 11.4231C14.6519 10.6275 15.5953 9.9 16.6069 9.24076L13.7767 4.33057C12.3445 5.23987 11.0033 6.27419 9.7644 7.41081L13.7653 11.4231Z" fill="url(#paint1_linear_479_2948)"/>
<path d="M18.5846 8.09275C19.6417 7.54717 20.7442 7.0925 21.8922 6.72878L20.4259 1.25024C18.8006 1.76173 17.2434 2.40963 15.7544 3.1939L18.5846 8.09275Z" fill="url(#paint2_linear_479_2948)"/>
<path d="M9.95769 15.8898C10.6056 14.8896 11.333 13.9348 12.14 13.0483L8.13912 9.04736C7.00249 10.2863 5.96814 11.6275 5.05884 13.0596L9.95769 15.8898Z" fill="url(#paint3_linear_479_2948)"/>
<path d="M6.37741 26.9608C6.43424 25.7446 6.59337 24.5625 6.84343 23.4145L1.37627 21.9482C1.01255 23.5736 0.796605 25.2445 0.717041 26.9608H6.37741Z" fill="url(#paint4_linear_479_2948)"/>
<path d="M7.43432 21.1866C7.8094 20.0386 8.26407 18.9361 8.79828 17.879L3.89943 15.0488C3.11516 16.5378 2.46729 18.095 1.95581 19.7203L7.43432 21.1866Z" fill="url(#paint5_linear_479_2948)"/>
<path opacity="0.43" d="M53.7292 15.0488L48.8303 17.879C49.3759 18.9361 49.8306 20.0386 50.1943 21.1866L55.6728 19.7203C55.1613 18.095 54.5134 16.5264 53.7292 15.0488Z" fill="#406EB2"/>
<path opacity="0.43" d="M45.4888 13.0483C46.2844 13.9348 47.0119 14.8782 47.6711 15.8898L52.5813 13.0596C51.672 11.6275 50.6377 10.2863 49.5011 9.04736L45.4888 13.0483Z" fill="#406EB2"/>
<path opacity="0.43" d="M35.7366 6.72878C36.8846 7.10387 37.9871 7.55853 39.0442 8.09275L41.8743 3.1939C40.3854 2.40963 38.8282 1.76173 37.2028 1.25024L35.7366 6.72878Z" fill="#406EB2"/>
<path opacity="0.43" d="M41.0332 9.24065C42.0334 9.88852 42.9882 10.616 43.8748 11.423L47.8757 7.42208C46.6368 6.28545 45.2955 5.2511 43.8634 4.3418L41.0332 9.24065Z" fill="#406EB2"/>
<path opacity="0.43" d="M29.9624 5.66037C31.1786 5.7172 32.3607 5.87633 33.5087 6.12639L34.9749 0.659227C33.3495 0.295507 31.6787 0.0795637 29.9624 0V5.66037Z" fill="#406EB2"/>
<path d="M6.83196 32.8029C6.5819 31.6549 6.43417 30.4614 6.36597 29.2566H0.705566C0.773764 30.9729 1.00107 32.6437 1.36479 34.2691L6.83196 32.8029Z" fill="url(#paint6_linear_479_2948)"/>
<path d="M8.79828 38.3269C8.2527 37.2698 7.79804 36.1673 7.43432 35.0193L1.95581 36.4855C2.46729 38.1109 3.11516 39.6681 3.89943 41.1571L8.79828 38.3269Z" fill="url(#paint7_linear_479_2948)"/>
<path opacity="0.43" d="M43.8633 44.783C42.9767 45.5786 42.0333 46.306 41.0217 46.9653L43.8519 51.8755C45.2841 50.9662 46.6253 49.9319 47.8642 48.7952L43.8633 44.783Z" fill="#406EB2"/>
<path opacity="0.43" d="M50.1943 35.0308C49.8192 36.1788 49.3645 37.2813 48.8303 38.3383L53.7292 41.1686C54.5134 39.6796 55.1613 38.1224 55.6728 36.497L50.1943 35.0308Z" fill="#406EB2"/>
<path opacity="0.43" d="M39.0442 48.1133C37.9871 48.6589 36.8846 49.1135 35.7366 49.4772L37.2028 54.9557C38.8282 54.4443 40.3854 53.7964 41.8743 53.0121L39.0442 48.1133Z" fill="#406EB2"/>
<path opacity="0.43" d="M50.7854 23.403C51.0355 24.551 51.1832 25.7445 51.2514 26.9493H56.9118C56.8436 25.233 56.6163 23.5621 56.2526 21.9368L50.7854 23.403Z" fill="#406EB2"/>
<path opacity="0.43" d="M51.2514 29.2566C51.1946 30.4728 51.0355 31.6549 50.7854 32.8029L56.2526 34.2691C56.6163 32.6437 56.8322 30.9729 56.9118 29.2566H51.2514Z" fill="#406EB2"/>
<path opacity="0.43" d="M47.6711 40.3274C47.0232 41.3276 46.2958 42.2824 45.4888 43.169L49.4897 47.1699C50.6263 45.931 51.6607 44.5898 52.57 43.1576L47.6711 40.3274Z" fill="#406EB2"/>
<path d="M16.5957 46.9653C15.5954 46.3174 14.6407 45.59 13.7541 44.783L9.75317 48.7839C10.9921 49.9205 12.3333 50.9548 13.7655 51.8641L16.5957 46.9653Z" fill="url(#paint8_linear_479_2948)"/>
<path d="M12.1287 43.1575C11.333 42.2709 10.6056 41.3275 9.94636 40.3159L5.03613 43.1461C5.94543 44.5782 6.97975 45.9195 8.11638 47.1584L12.1287 43.1575Z" fill="url(#paint9_linear_479_2948)"/>
<path d="M27.6663 50.5456C26.4501 50.4888 25.2681 50.3296 24.1201 50.0796L22.6538 55.5468C24.2792 55.9105 25.95 56.1264 27.6663 56.206V50.5456Z" fill="url(#paint10_linear_479_2948)"/>
<path d="M21.8922 49.4884C20.7442 49.1134 19.6417 48.6587 18.5846 48.1245L15.7544 53.0234C17.2434 53.8076 18.8006 54.4555 20.4259 54.967L21.8922 49.4884Z" fill="url(#paint11_linear_479_2948)"/>
<path opacity="0.43" d="M33.5087 50.0796C32.3607 50.3296 31.1672 50.4774 29.9624 50.5456V56.206C31.6787 56.1378 33.3495 55.9105 34.9749 55.5468L33.5087 50.0796Z" fill="#406EB2"/>
<defs>
<linearGradient id="paint0_linear_479_2948" x1="-156.607" y1="3.06637" x2="114.191" y2="3.06637" gradientUnits="userSpaceOnUse">
<stop offset="0.0101" stop-color="#F408AB"/>
<stop offset="1" stop-color="#27B7FF"/>
</linearGradient>
<linearGradient id="paint1_linear_479_2948" x1="-156.607" y1="7.88252" x2="114.191" y2="7.88252" gradientUnits="userSpaceOnUse">
<stop offset="0.0101" stop-color="#F408AB"/>
<stop offset="1" stop-color="#27B7FF"/>
</linearGradient>
<linearGradient id="paint2_linear_479_2948" x1="-156.607" y1="4.67127" x2="114.19" y2="4.67127" gradientUnits="userSpaceOnUse">
<stop offset="0.0101" stop-color="#F408AB"/>
<stop offset="1" stop-color="#27B7FF"/>
</linearGradient>
<linearGradient id="paint3_linear_479_2948" x1="-156.61" y1="12.4679" x2="114.192" y2="12.4679" gradientUnits="userSpaceOnUse">
<stop offset="0.0101" stop-color="#F408AB"/>
<stop offset="1" stop-color="#27B7FF"/>
</linearGradient>
<linearGradient id="paint4_linear_479_2948" x1="-156.61" y1="24.4485" x2="114.192" y2="24.4485" gradientUnits="userSpaceOnUse">
<stop offset="0.0101" stop-color="#F408AB"/>
<stop offset="1" stop-color="#27B7FF"/>
</linearGradient>
<linearGradient id="paint5_linear_479_2948" x1="-156.608" y1="18.1166" x2="114.191" y2="18.1166" gradientUnits="userSpaceOnUse">
<stop offset="0.0101" stop-color="#F408AB"/>
<stop offset="1" stop-color="#27B7FF"/>
</linearGradient>
<linearGradient id="paint6_linear_479_2948" x1="-156.61" y1="31.7625" x2="114.192" y2="31.7625" gradientUnits="userSpaceOnUse">
<stop offset="0.0101" stop-color="#F408AB"/>
<stop offset="1" stop-color="#27B7FF"/>
</linearGradient>
<linearGradient id="paint7_linear_479_2948" x1="-156.608" y1="38.0943" x2="114.191" y2="38.0943" gradientUnits="userSpaceOnUse">
<stop offset="0.0101" stop-color="#F408AB"/>
<stop offset="1" stop-color="#27B7FF"/>
</linearGradient>
<linearGradient id="paint8_linear_479_2948" x1="-156.608" y1="48.3285" x2="114.191" y2="48.3285" gradientUnits="userSpaceOnUse">
<stop offset="0.0101" stop-color="#F408AB"/>
<stop offset="1" stop-color="#27B7FF"/>
</linearGradient>
<linearGradient id="paint9_linear_479_2948" x1="-156.609" y1="43.7429" x2="114.192" y2="43.7429" gradientUnits="userSpaceOnUse">
<stop offset="0.0101" stop-color="#F408AB"/>
<stop offset="1" stop-color="#27B7FF"/>
</linearGradient>
<linearGradient id="paint10_linear_479_2948" x1="-156.607" y1="53.1446" x2="114.191" y2="53.1446" gradientUnits="userSpaceOnUse">
<stop offset="0.0101" stop-color="#F408AB"/>
<stop offset="1" stop-color="#27B7FF"/>
</linearGradient>
<linearGradient id="paint11_linear_479_2948" x1="-156.607" y1="51.5396" x2="114.19" y2="51.5396" gradientUnits="userSpaceOnUse">
<stop offset="0.0101" stop-color="#F408AB"/>
<stop offset="1" stop-color="#27B7FF"/>
</linearGradient>
</defs>
</svg>
