<svg width="57" height="57" viewBox="0 0 57 57" fill="none" xmlns="http://www.w3.org/2000/svg">
<path d="M23.403 6.12639C24.551 5.87633 25.7445 5.72857 26.9493 5.66037V0C25.233 0.0681975 23.5621 0.295507 21.9368 0.659227L23.403 6.12639Z" fill="url(#paint0_linear_479_2898)"/>
<path d="M13.0485 11.4231C13.9351 10.6275 14.8785 9.9 15.8901 9.24076L13.0599 4.33057C11.6277 5.23987 10.2865 6.27419 9.04761 7.41081L13.0485 11.4231Z" fill="url(#paint1_linear_479_2898)"/>
<path d="M17.879 8.09275C18.9361 7.54717 20.0386 7.0925 21.1866 6.72878L19.7204 1.25024C18.095 1.76173 16.5378 2.40963 15.0488 3.1939L17.879 8.09275Z" fill="url(#paint2_linear_479_2898)"/>
<path d="M9.24065 15.8898C9.88852 14.8896 10.6159 13.9348 11.4229 13.0483L7.42204 9.04736C6.28542 10.2863 5.2511 11.6275 4.3418 13.0596L9.24065 15.8898Z" fill="url(#paint3_linear_479_2898)"/>
<path d="M5.66039 26.9608C5.71722 25.7446 5.87635 24.5625 6.12641 23.4145L0.659244 21.9482C0.295525 23.5736 0.0795637 25.2445 0 26.9608H5.66039Z" fill="url(#paint4_linear_479_2898)"/>
<path d="M6.71731 21.1866C7.0924 20.0386 7.54706 18.9361 8.08127 17.879L3.18241 15.0488C2.39813 16.5378 1.75025 18.095 1.23877 19.7203L6.71731 21.1866Z" fill="url(#paint5_linear_479_2898)"/>
<path d="M53.0234 15.0488L48.1245 17.879C48.6701 18.9361 49.1248 20.0386 49.4885 21.1866L54.967 19.7203C54.4555 18.095 53.7963 16.5264 53.0234 15.0488Z" fill="url(#paint6_linear_479_2898)"/>
<path d="M44.783 13.0483C45.5786 13.9348 46.3061 14.8782 46.9653 15.8898L51.8755 13.0596C50.9662 11.6275 49.9319 10.2863 48.7952 9.04736L44.783 13.0483Z" fill="url(#paint7_linear_479_2898)"/>
<path opacity="0.43" d="M35.0195 6.72878C36.1675 7.10387 37.2701 7.55853 38.3271 8.09275L41.1573 3.1939C39.6683 2.40963 38.1112 1.76173 36.4858 1.25024L35.0195 6.72878Z" fill="#406EB2"/>
<path opacity="0.43" d="M40.3162 9.24065C41.3164 9.88852 42.2712 10.616 43.1577 11.423L47.1586 7.42208C45.9197 6.28545 44.5785 5.2511 43.1463 4.3418L40.3162 9.24065Z" fill="#406EB2"/>
<path opacity="0.43" d="M29.2566 5.66037C30.4728 5.7172 31.6549 5.87633 32.8029 6.12639L34.2691 0.659227C32.6437 0.295507 30.9729 0.0795637 29.2566 0V5.66037Z" fill="#406EB2"/>
<path d="M6.12641 32.8029C5.87635 31.6549 5.72858 30.4614 5.66039 29.2566H0C0.0681975 30.9729 0.295525 32.6437 0.659244 34.2691L6.12641 32.8029Z" fill="url(#paint8_linear_479_2898)"/>
<path d="M8.09271 38.3269C7.54713 37.2698 7.09249 36.1673 6.72877 35.0193L1.25024 36.4855C1.76173 38.1109 2.40959 39.6681 3.19386 41.1571L8.09271 38.3269Z" fill="url(#paint9_linear_479_2898)"/>
<path d="M43.1577 44.783C42.2712 45.5786 41.3278 46.306 40.3162 46.9653L43.1463 51.8755C44.5785 50.9662 45.9197 49.9319 47.1586 48.7952L43.1577 44.783Z" fill="url(#paint10_linear_479_2898)"/>
<path d="M49.4885 35.0308C49.1134 36.1788 48.6587 37.2813 48.1245 38.3383L53.0234 41.1686C53.8076 39.6796 54.4555 38.1224 54.967 36.497L49.4885 35.0308Z" fill="url(#paint11_linear_479_2898)"/>
<path d="M38.3271 48.1133C37.2701 48.6589 36.1675 49.1135 35.0195 49.4772L36.4858 54.9557C38.1112 54.4443 39.6683 53.7964 41.1573 53.0121L38.3271 48.1133Z" fill="url(#paint12_linear_479_2898)"/>
<path d="M50.0798 23.403C50.3299 24.551 50.4777 25.7445 50.5459 26.9493H56.2063C56.1381 25.233 55.9107 23.5621 55.547 21.9368L50.0798 23.403Z" fill="url(#paint13_linear_479_2898)"/>
<path d="M50.5459 29.2566C50.489 30.4728 50.3299 31.6549 50.0798 32.8029L55.547 34.2691C55.9107 32.6437 56.1267 30.9729 56.2063 29.2566H50.5459Z" fill="url(#paint14_linear_479_2898)"/>
<path d="M46.9653 40.3274C46.3174 41.3276 45.59 42.2824 44.783 43.169L48.7839 47.1699C49.9205 45.931 50.9548 44.5898 51.8641 43.1576L46.9653 40.3274Z" fill="url(#paint15_linear_479_2898)"/>
<path d="M15.8901 46.9653C14.8899 46.3174 13.9351 45.59 13.0485 44.783L9.04761 48.7839C10.2865 49.9205 11.6277 50.9548 13.0599 51.8641L15.8901 46.9653Z" fill="url(#paint16_linear_479_2898)"/>
<path d="M11.4231 43.1575C10.6275 42.2709 9.90004 41.3275 9.24079 40.3159L4.33057 43.1461C5.23987 44.5782 6.2742 45.9195 7.41083 47.1584L11.4231 43.1575Z" fill="url(#paint17_linear_479_2898)"/>
<path d="M26.9493 50.5456C25.7331 50.4888 24.551 50.3296 23.403 50.0796L21.9368 55.5468C23.5621 55.9105 25.233 56.1264 26.9493 56.206V50.5456Z" fill="url(#paint18_linear_479_2898)"/>
<path d="M21.1866 49.4884C20.0386 49.1134 18.9361 48.6587 17.879 48.1245L15.0488 53.0234C16.5378 53.8076 18.095 54.4555 19.7204 54.967L21.1866 49.4884Z" fill="url(#paint19_linear_479_2898)"/>
<path d="M32.8029 50.0796C31.6549 50.3296 30.4614 50.4774 29.2566 50.5456V56.206C30.9729 56.1378 32.6437 55.9105 34.2691 55.5468L32.8029 50.0796Z" fill="url(#paint20_linear_479_2898)"/>
<defs>
<linearGradient id="paint0_linear_479_2898" x1="-4.60924" y1="3.06638" x2="266.194" y2="3.06638" gradientUnits="userSpaceOnUse">
<stop offset="0.0101" stop-color="#F408AB"/>
<stop offset="1" stop-color="#27B7FF"/>
</linearGradient>
<linearGradient id="paint1_linear_479_2898" x1="-4.60899" y1="7.88252" x2="266.195" y2="7.88252" gradientUnits="userSpaceOnUse">
<stop offset="0.0101" stop-color="#F408AB"/>
<stop offset="1" stop-color="#27B7FF"/>
</linearGradient>
<linearGradient id="paint2_linear_479_2898" x1="-4.6093" y1="4.67127" x2="266.195" y2="4.67127" gradientUnits="userSpaceOnUse">
<stop offset="0.0101" stop-color="#F408AB"/>
<stop offset="1" stop-color="#27B7FF"/>
</linearGradient>
<linearGradient id="paint3_linear_479_2898" x1="-4.60887" y1="12.4679" x2="266.188" y2="12.4679" gradientUnits="userSpaceOnUse">
<stop offset="0.0101" stop-color="#F408AB"/>
<stop offset="1" stop-color="#27B7FF"/>
</linearGradient>
<linearGradient id="paint4_linear_479_2898" x1="-4.60901" y1="24.4485" x2="266.193" y2="24.4485" gradientUnits="userSpaceOnUse">
<stop offset="0.0101" stop-color="#F408AB"/>
<stop offset="1" stop-color="#27B7FF"/>
</linearGradient>
<linearGradient id="paint5_linear_479_2898" x1="-4.60907" y1="18.1166" x2="266.191" y2="18.1166" gradientUnits="userSpaceOnUse">
<stop offset="0.0101" stop-color="#F408AB"/>
<stop offset="1" stop-color="#27B7FF"/>
</linearGradient>
<linearGradient id="paint6_linear_479_2898" x1="50.001" y1="18.1166" x2="77.4211" y2="18.1166" gradientUnits="userSpaceOnUse">
<stop offset="0.0101" stop-color="#F408AB"/>
<stop offset="1" stop-color="#27B7FF"/>
</linearGradient>
<linearGradient id="paint7_linear_479_2898" x1="50.0011" y1="12.4679" x2="77.4214" y2="12.4679" gradientUnits="userSpaceOnUse">
<stop offset="0.0101" stop-color="#F408AB"/>
<stop offset="1" stop-color="#27B7FF"/>
</linearGradient>
<linearGradient id="paint8_linear_479_2898" x1="-4.60901" y1="31.7625" x2="266.193" y2="31.7625" gradientUnits="userSpaceOnUse">
<stop offset="0.0101" stop-color="#F408AB"/>
<stop offset="1" stop-color="#27B7FF"/>
</linearGradient>
<linearGradient id="paint9_linear_479_2898" x1="-4.60893" y1="38.0943" x2="266.19" y2="38.0943" gradientUnits="userSpaceOnUse">
<stop offset="0.0101" stop-color="#F408AB"/>
<stop offset="1" stop-color="#27B7FF"/>
</linearGradient>
<linearGradient id="paint10_linear_479_2898" x1="-4.6092" y1="48.3285" x2="266.193" y2="48.3285" gradientUnits="userSpaceOnUse">
<stop offset="0.0101" stop-color="#F408AB"/>
<stop offset="1" stop-color="#27B7FF"/>
</linearGradient>
<linearGradient id="paint11_linear_479_2898" x1="-4.60914" y1="38.0944" x2="266.192" y2="38.0944" gradientUnits="userSpaceOnUse">
<stop offset="0.0101" stop-color="#F408AB"/>
<stop offset="1" stop-color="#27B7FF"/>
</linearGradient>
<linearGradient id="paint12_linear_479_2898" x1="-4.60908" y1="51.5397" x2="266.193" y2="51.5397" gradientUnits="userSpaceOnUse">
<stop offset="0.0101" stop-color="#F408AB"/>
<stop offset="1" stop-color="#27B7FF"/>
</linearGradient>
<linearGradient id="paint13_linear_479_2898" x1="50.0013" y1="24.4484" x2="77.4215" y2="24.4484" gradientUnits="userSpaceOnUse">
<stop offset="0.0101" stop-color="#F408AB"/>
<stop offset="1" stop-color="#27B7FF"/>
</linearGradient>
<linearGradient id="paint14_linear_479_2898" x1="-4.60925" y1="31.7625" x2="266.194" y2="31.7625" gradientUnits="userSpaceOnUse">
<stop offset="0.0101" stop-color="#F408AB"/>
<stop offset="1" stop-color="#27B7FF"/>
</linearGradient>
<linearGradient id="paint15_linear_479_2898" x1="-4.60939" y1="43.7431" x2="266.193" y2="43.7431" gradientUnits="userSpaceOnUse">
<stop offset="0.0101" stop-color="#F408AB"/>
<stop offset="1" stop-color="#27B7FF"/>
</linearGradient>
<linearGradient id="paint16_linear_479_2898" x1="-4.60899" y1="48.3285" x2="266.195" y2="48.3285" gradientUnits="userSpaceOnUse">
<stop offset="0.0101" stop-color="#F408AB"/>
<stop offset="1" stop-color="#27B7FF"/>
</linearGradient>
<linearGradient id="paint17_linear_479_2898" x1="-4.60875" y1="43.7429" x2="266.188" y2="43.7429" gradientUnits="userSpaceOnUse">
<stop offset="0.0101" stop-color="#F408AB"/>
<stop offset="1" stop-color="#27B7FF"/>
</linearGradient>
<linearGradient id="paint18_linear_479_2898" x1="-4.60924" y1="53.1446" x2="266.194" y2="53.1446" gradientUnits="userSpaceOnUse">
<stop offset="0.0101" stop-color="#F408AB"/>
<stop offset="1" stop-color="#27B7FF"/>
</linearGradient>
<linearGradient id="paint19_linear_479_2898" x1="-4.6093" y1="51.5396" x2="266.195" y2="51.5396" gradientUnits="userSpaceOnUse">
<stop offset="0.0101" stop-color="#F408AB"/>
<stop offset="1" stop-color="#27B7FF"/>
</linearGradient>
<linearGradient id="paint20_linear_479_2898" x1="-4.6094" y1="53.1446" x2="266.194" y2="53.1446" gradientUnits="userSpaceOnUse">
<stop offset="0.0101" stop-color="#F408AB"/>
<stop offset="1" stop-color="#27B7FF"/>
</linearGradient>
</defs>
</svg>
