<svg width="57" height="57" viewBox="0 0 57 57" fill="none" xmlns="http://www.w3.org/2000/svg">
<path d="M24.1247 6.12639C25.2727 5.87633 26.4661 5.72857 27.671 5.66037V0C25.9547 0.0681975 24.2838 0.295507 22.6584 0.659227L24.1247 6.12639Z" fill="url(#paint0_linear_479_2923)"/>
<path d="M13.7587 11.4231C14.6453 10.6275 15.5887 9.9 16.6003 9.24076L13.7701 4.33057C12.3379 5.23987 10.9967 6.27419 9.75781 7.41081L13.7587 11.4231Z" fill="url(#paint1_linear_479_2923)"/>
<path d="M18.5892 8.09275C19.6463 7.54717 20.7488 7.0925 21.8968 6.72878L20.4306 1.25024C18.8052 1.76173 17.248 2.40963 15.759 3.1939L18.5892 8.09275Z" fill="url(#paint2_linear_479_2923)"/>
<path d="M9.96233 15.8898C10.6102 14.8896 11.3377 13.9348 12.1447 13.0483L8.14372 9.04736C7.0071 10.2863 5.97278 11.6275 5.06348 13.0596L9.96233 15.8898Z" fill="url(#paint3_linear_479_2923)"/>
<path d="M6.38184 26.9608C6.43867 25.7446 6.5978 24.5625 6.84786 23.4145L1.3807 21.9482C1.01698 23.5736 0.800999 25.2445 0.721436 26.9608H6.38184Z" fill="url(#paint4_linear_479_2923)"/>
<path d="M7.43895 21.1866C7.81404 20.0386 8.2687 18.9361 8.80292 17.879L3.90407 15.0488C3.1198 16.5378 2.47193 18.095 1.96045 19.7203L7.43895 21.1866Z" fill="url(#paint5_linear_479_2923)"/>
<path opacity="0.43" d="M53.7336 15.0488L48.8347 17.879C49.3803 18.9361 49.8349 20.0386 50.1986 21.1866L55.6772 19.7203C55.1657 18.095 54.5178 16.5264 53.7336 15.0488Z" fill="#406EB2"/>
<path opacity="0.43" d="M45.4932 13.0483C46.2888 13.9348 47.0162 14.8782 47.6755 15.8898L52.5857 13.0596C51.6764 11.6275 50.6421 10.2863 49.5054 9.04736L45.4932 13.0483Z" fill="#406EB2"/>
<path opacity="0.43" d="M35.741 6.72878C36.889 7.10387 37.9915 7.55853 39.0485 8.09275L41.8788 3.1939C40.3898 2.40963 38.8326 1.76173 37.2072 1.25024L35.741 6.72878Z" fill="#406EB2"/>
<path opacity="0.43" d="M41.0376 9.24065C42.0378 9.88852 42.9926 10.616 43.8792 11.423L47.8801 7.42208C46.6412 6.28545 45.3 5.2511 43.8678 4.3418L41.0376 9.24065Z" fill="#406EB2"/>
<path opacity="0.43" d="M29.9668 5.66037C31.183 5.7172 32.3651 5.87633 33.5131 6.12639L34.9793 0.659227C33.3539 0.295507 31.6831 0.0795637 29.9668 0V5.66037Z" fill="#406EB2"/>
<path d="M6.83659 32.8029C6.58654 31.6549 6.43877 30.4614 6.37057 29.2566H0.710205C0.778403 30.9729 1.00571 32.6437 1.36943 34.2691L6.83659 32.8029Z" fill="url(#paint6_linear_479_2923)"/>
<path d="M8.80292 38.3269C8.25734 37.2698 7.80267 36.1673 7.43895 35.0193L1.96045 36.4855C2.47193 38.1109 3.1198 39.6681 3.90407 41.1571L8.80292 38.3269Z" fill="url(#paint7_linear_479_2923)"/>
<path d="M43.8677 44.783C42.9811 45.5786 42.0377 46.306 41.0261 46.9653L43.8563 51.8755C45.2885 50.9662 46.6297 49.9319 47.8686 48.7952L43.8677 44.783Z" fill="url(#paint8_linear_479_2923)"/>
<path d="M50.1986 35.0308C49.8236 36.1788 49.3689 37.2813 48.8347 38.3383L53.7336 41.1686C54.5178 39.6796 55.1657 38.1224 55.6772 36.497L50.1986 35.0308Z" fill="url(#paint9_linear_479_2923)"/>
<path d="M39.0485 48.1133C37.9915 48.6589 36.889 49.1135 35.741 49.4772L37.2072 54.9557C38.8326 54.4443 40.3898 53.7964 41.8788 53.0121L39.0485 48.1133Z" fill="url(#paint10_linear_479_2923)"/>
<path opacity="0.43" d="M50.79 23.403C51.0401 24.551 51.1879 25.7445 51.2561 26.9493H56.9164C56.8482 25.233 56.6209 23.5621 56.2572 21.9368L50.79 23.403Z" fill="#406EB2"/>
<path d="M51.2561 29.2566C51.1992 30.4728 51.0401 31.6549 50.79 32.8029L56.2572 34.2691C56.6209 32.6437 56.8369 30.9729 56.9164 29.2566H51.2561Z" fill="url(#paint11_linear_479_2923)"/>
<path d="M47.6755 40.3274C47.0276 41.3276 46.3002 42.2824 45.4932 43.169L49.4941 47.1699C50.6307 45.931 51.6651 44.5898 52.5743 43.1576L47.6755 40.3274Z" fill="url(#paint12_linear_479_2923)"/>
<path d="M16.6003 46.9653C15.6001 46.3174 14.6453 45.59 13.7587 44.783L9.75781 48.7839C10.9967 49.9205 12.3379 50.9548 13.7701 51.8641L16.6003 46.9653Z" fill="url(#paint13_linear_479_2923)"/>
<path d="M12.1333 43.1575C11.3377 42.2709 10.6102 41.3275 9.951 40.3159L5.04077 43.1461C5.95007 44.5782 6.98439 45.9195 8.12102 47.1584L12.1333 43.1575Z" fill="url(#paint14_linear_479_2923)"/>
<path d="M27.671 50.5456C26.4548 50.4888 25.2727 50.3296 24.1247 50.0796L22.6584 55.5468C24.2838 55.9105 25.9547 56.1264 27.671 56.206V50.5456Z" fill="url(#paint15_linear_479_2923)"/>
<path d="M21.8968 49.4884C20.7488 49.1134 19.6463 48.6587 18.5892 48.1245L15.759 53.0234C17.248 53.8076 18.8052 54.4555 20.4306 54.967L21.8968 49.4884Z" fill="url(#paint16_linear_479_2923)"/>
<path d="M33.5131 50.0796C32.3651 50.3296 31.1716 50.4774 29.9668 50.5456V56.206C31.6831 56.1378 33.3539 55.9105 34.9793 55.5468L33.5131 50.0796Z" fill="url(#paint17_linear_479_2923)"/>
<defs>
<linearGradient id="paint0_linear_479_2923" x1="-78.6104" y1="3.06638" x2="192.193" y2="3.06638" gradientUnits="userSpaceOnUse">
<stop offset="0.0101" stop-color="#F408AB"/>
<stop offset="1" stop-color="#27B7FF"/>
</linearGradient>
<linearGradient id="paint1_linear_479_2923" x1="-78.6099" y1="7.88251" x2="192.193" y2="7.88251" gradientUnits="userSpaceOnUse">
<stop offset="0.0101" stop-color="#F408AB"/>
<stop offset="1" stop-color="#27B7FF"/>
</linearGradient>
<linearGradient id="paint2_linear_479_2923" x1="-78.6099" y1="4.67127" x2="192.192" y2="4.67127" gradientUnits="userSpaceOnUse">
<stop offset="0.0101" stop-color="#F408AB"/>
<stop offset="1" stop-color="#27B7FF"/>
</linearGradient>
<linearGradient id="paint3_linear_479_2923" x1="-78.6085" y1="12.4679" x2="192.189" y2="12.4679" gradientUnits="userSpaceOnUse">
<stop offset="0.0101" stop-color="#F408AB"/>
<stop offset="1" stop-color="#27B7FF"/>
</linearGradient>
<linearGradient id="paint4_linear_479_2923" x1="-78.6087" y1="24.4485" x2="192.19" y2="24.4485" gradientUnits="userSpaceOnUse">
<stop offset="0.0101" stop-color="#F408AB"/>
<stop offset="1" stop-color="#27B7FF"/>
</linearGradient>
<linearGradient id="paint5_linear_479_2923" x1="-78.6099" y1="18.1166" x2="192.194" y2="18.1166" gradientUnits="userSpaceOnUse">
<stop offset="0.0101" stop-color="#F408AB"/>
<stop offset="1" stop-color="#27B7FF"/>
</linearGradient>
<linearGradient id="paint6_linear_479_2923" x1="-78.6081" y1="31.7625" x2="192.189" y2="31.7625" gradientUnits="userSpaceOnUse">
<stop offset="0.0101" stop-color="#F408AB"/>
<stop offset="1" stop-color="#27B7FF"/>
</linearGradient>
<linearGradient id="paint7_linear_479_2923" x1="-78.6099" y1="38.0943" x2="192.194" y2="38.0943" gradientUnits="userSpaceOnUse">
<stop offset="0.0101" stop-color="#F408AB"/>
<stop offset="1" stop-color="#27B7FF"/>
</linearGradient>
<linearGradient id="paint8_linear_479_2923" x1="-78.608" y1="48.3285" x2="192.19" y2="48.3285" gradientUnits="userSpaceOnUse">
<stop offset="0.0101" stop-color="#F408AB"/>
<stop offset="1" stop-color="#27B7FF"/>
</linearGradient>
<linearGradient id="paint9_linear_479_2923" x1="-78.6087" y1="38.0944" x2="192.19" y2="38.0944" gradientUnits="userSpaceOnUse">
<stop offset="0.0101" stop-color="#F408AB"/>
<stop offset="1" stop-color="#27B7FF"/>
</linearGradient>
<linearGradient id="paint10_linear_479_2923" x1="-78.6107" y1="51.5397" x2="192.193" y2="51.5397" gradientUnits="userSpaceOnUse">
<stop offset="0.0101" stop-color="#F408AB"/>
<stop offset="1" stop-color="#27B7FF"/>
</linearGradient>
<linearGradient id="paint11_linear_479_2923" x1="-78.6092" y1="31.7625" x2="192.192" y2="31.7625" gradientUnits="userSpaceOnUse">
<stop offset="0.0101" stop-color="#F408AB"/>
<stop offset="1" stop-color="#27B7FF"/>
</linearGradient>
<linearGradient id="paint12_linear_479_2923" x1="-78.6101" y1="43.7431" x2="192.192" y2="43.7431" gradientUnits="userSpaceOnUse">
<stop offset="0.0101" stop-color="#F408AB"/>
<stop offset="1" stop-color="#27B7FF"/>
</linearGradient>
<linearGradient id="paint13_linear_479_2923" x1="-78.6099" y1="48.3285" x2="192.193" y2="48.3285" gradientUnits="userSpaceOnUse">
<stop offset="0.0101" stop-color="#F408AB"/>
<stop offset="1" stop-color="#27B7FF"/>
</linearGradient>
<linearGradient id="paint14_linear_479_2923" x1="-78.6082" y1="43.7429" x2="192.189" y2="43.7429" gradientUnits="userSpaceOnUse">
<stop offset="0.0101" stop-color="#F408AB"/>
<stop offset="1" stop-color="#27B7FF"/>
</linearGradient>
<linearGradient id="paint15_linear_479_2923" x1="-78.6104" y1="53.1446" x2="192.193" y2="53.1446" gradientUnits="userSpaceOnUse">
<stop offset="0.0101" stop-color="#F408AB"/>
<stop offset="1" stop-color="#27B7FF"/>
</linearGradient>
<linearGradient id="paint16_linear_479_2923" x1="-78.6099" y1="51.5396" x2="192.192" y2="51.5396" gradientUnits="userSpaceOnUse">
<stop offset="0.0101" stop-color="#F408AB"/>
<stop offset="1" stop-color="#27B7FF"/>
</linearGradient>
<linearGradient id="paint17_linear_479_2923" x1="-78.6104" y1="53.1446" x2="192.193" y2="53.1446" gradientUnits="userSpaceOnUse">
<stop offset="0.0101" stop-color="#F408AB"/>
<stop offset="1" stop-color="#27B7FF"/>
</linearGradient>
</defs>
</svg>
