<svg width="58" height="57" viewBox="0 0 58 57" fill="none" xmlns="http://www.w3.org/2000/svg">
<path d="M24.3298 6.12639C25.4778 5.87633 26.6712 5.72857 27.876 5.66037V0C26.1597 0.0681975 24.4889 0.295507 22.8635 0.659227L24.3298 6.12639Z" fill="url(#paint0_linear_479_2973)"/>
<path d="M13.9753 11.4231C14.8618 10.6275 15.8052 9.9 16.8168 9.24076L13.9866 4.33057C12.5545 5.23987 11.2133 6.27419 9.97437 7.41081L13.9753 11.4231Z" fill="url(#paint1_linear_479_2973)"/>
<path d="M18.7946 8.09275C19.8516 7.54717 20.9541 7.0925 22.1021 6.72878L20.6359 1.25024C19.0105 1.76173 17.4533 2.40963 15.9644 3.1939L18.7946 8.09275Z" fill="url(#paint2_linear_479_2973)"/>
<path d="M10.1674 15.8898C10.8153 14.8896 11.5427 13.9348 12.3497 13.0483L8.34883 9.04736C7.21221 10.2863 6.17785 11.6275 5.26855 13.0596L10.1674 15.8898Z" fill="url(#paint3_linear_479_2973)"/>
<path d="M6.58713 26.9608C6.64396 25.7446 6.80309 24.5625 7.05315 23.4145L1.58598 21.9482C1.22227 23.5736 1.00632 25.2445 0.926758 26.9608H6.58713Z" fill="url(#paint4_linear_479_2973)"/>
<path d="M7.64403 21.1866C8.01912 20.0386 8.47378 18.9361 9.008 17.879L4.10915 15.0488C3.32487 16.5378 2.67701 18.095 2.16553 19.7203L7.64403 21.1866Z" fill="url(#paint5_linear_479_2973)"/>
<path opacity="0.43" d="M53.9389 15.0488L49.04 17.879C49.5856 18.9361 50.0403 20.0386 50.404 21.1866L55.8825 19.7203C55.371 18.095 54.7232 16.5264 53.9389 15.0488Z" fill="#406EB2"/>
<path opacity="0.43" d="M45.7097 13.0483C46.5054 13.9348 47.2328 14.8782 47.892 15.8898L52.8022 13.0596C51.8929 11.6275 50.8586 10.2863 49.722 9.04736L45.7097 13.0483Z" fill="#406EB2"/>
<path opacity="0.43" d="M35.9463 6.72878C37.0943 7.10387 38.1968 7.55853 39.2539 8.09275L42.0841 3.1939C40.5951 2.40963 39.0379 1.76173 37.4125 1.25024L35.9463 6.72878Z" fill="#406EB2"/>
<path opacity="0.43" d="M41.2429 9.24065C42.2431 9.88852 43.1979 10.616 44.0845 11.423L48.0854 7.42208C46.8465 6.28545 45.5053 5.2511 44.0731 4.3418L41.2429 9.24065Z" fill="#406EB2"/>
<path opacity="0.43" d="M30.1721 5.66037C31.3883 5.7172 32.5704 5.87633 33.7184 6.12639L35.1846 0.659227C33.5593 0.295507 31.8884 0.0795637 30.1721 0V5.66037Z" fill="#406EB2"/>
<path opacity="0.43" d="M7.05315 32.8029C6.80309 31.6549 6.65532 30.4614 6.58713 29.2566H0.926758C0.994955 30.9729 1.22227 32.6437 1.58598 34.2691L7.05315 32.8029Z" fill="#406EB2"/>
<path opacity="0.43" d="M9.008 38.3269C8.46242 37.2698 8.00775 36.1673 7.64403 35.0193L2.16553 36.4855C2.67701 38.1109 3.32487 39.6681 4.10915 41.1571L9.008 38.3269Z" fill="#406EB2"/>
<path opacity="0.43" d="M44.0845 44.783C43.1979 45.5786 42.2545 46.306 41.2429 46.9653L44.0731 51.8755C45.5053 50.9662 46.8465 49.9319 48.0854 48.7952L44.0845 44.783Z" fill="#406EB2"/>
<path opacity="0.43" d="M50.404 35.0308C50.0289 36.1788 49.5743 37.2813 49.04 38.3383L53.9389 41.1686C54.7232 39.6796 55.371 38.1224 55.8825 36.497L50.404 35.0308Z" fill="#406EB2"/>
<path opacity="0.43" d="M39.2539 48.1133C38.1968 48.6589 37.0943 49.1135 35.9463 49.4772L37.4125 54.9557C39.0379 54.4443 40.5951 53.7964 42.0841 53.0121L39.2539 48.1133Z" fill="#406EB2"/>
<path opacity="0.43" d="M51.0063 23.403C51.2564 24.551 51.4042 25.7445 51.4724 26.9493H57.1327C57.0645 25.233 56.8372 23.5621 56.4735 21.9368L51.0063 23.403Z" fill="#406EB2"/>
<path opacity="0.43" d="M51.4611 29.2566C51.4043 30.4728 51.2452 31.6549 50.9951 32.8029L56.4623 34.2691C56.826 32.6437 57.042 30.9729 57.1215 29.2566H51.4611Z" fill="#406EB2"/>
<path opacity="0.43" d="M47.8808 40.3274C47.2329 41.3276 46.5055 42.2824 45.6985 43.169L49.6994 47.1699C50.836 45.931 51.8704 44.5898 52.7797 43.1576L47.8808 40.3274Z" fill="#406EB2"/>
<path opacity="0.43" d="M16.8054 46.9653C15.8052 46.3174 14.8504 45.59 13.9638 44.783L9.96289 48.7839C11.2018 49.9205 12.543 50.9548 13.9752 51.8641L16.8054 46.9653Z" fill="#406EB2"/>
<path opacity="0.43" d="M12.3499 43.1575C11.5542 42.2709 10.8268 41.3275 10.1675 40.3159L5.25732 43.1461C6.16662 44.5782 7.20094 45.9195 8.33757 47.1584L12.3499 43.1575Z" fill="#406EB2"/>
<path opacity="0.43" d="M27.876 50.5456C26.6599 50.4888 25.4778 50.3296 24.3298 50.0796L22.8635 55.5468C24.4889 55.9105 26.1597 56.1264 27.876 56.206V50.5456Z" fill="#406EB2"/>
<path opacity="0.43" d="M22.1021 49.4884C20.9541 49.1134 19.8516 48.6587 18.7946 48.1245L15.9644 53.0234C17.4533 53.8076 19.0105 54.4555 20.6359 54.967L22.1021 49.4884Z" fill="#406EB2"/>
<path opacity="0.43" d="M33.7184 50.0796C32.5704 50.3296 31.3769 50.4774 30.1721 50.5456V56.206C31.8884 56.1378 33.5593 55.9105 35.1846 55.5468L33.7184 50.0796Z" fill="#406EB2"/>
<defs>
<linearGradient id="paint0_linear_479_2973" x1="-228.613" y1="3.06638" x2="42.1917" y2="3.06638" gradientUnits="userSpaceOnUse">
<stop offset="0.0101" stop-color="#F408AB"/>
<stop offset="1" stop-color="#27B7FF"/>
</linearGradient>
<linearGradient id="paint1_linear_479_2973" x1="-228.611" y1="7.88251" x2="42.1919" y2="7.88251" gradientUnits="userSpaceOnUse">
<stop offset="0.0101" stop-color="#F408AB"/>
<stop offset="1" stop-color="#27B7FF"/>
</linearGradient>
<linearGradient id="paint2_linear_479_2973" x1="-228.61" y1="4.67127" x2="42.1918" y2="4.67127" gradientUnits="userSpaceOnUse">
<stop offset="0.0101" stop-color="#F408AB"/>
<stop offset="1" stop-color="#27B7FF"/>
</linearGradient>
<linearGradient id="paint3_linear_479_2973" x1="-228.607" y1="12.4679" x2="42.1911" y2="12.4679" gradientUnits="userSpaceOnUse">
<stop offset="0.0101" stop-color="#F408AB"/>
<stop offset="1" stop-color="#27B7FF"/>
</linearGradient>
<linearGradient id="paint4_linear_479_2973" x1="-228.605" y1="24.4485" x2="42.191" y2="24.4485" gradientUnits="userSpaceOnUse">
<stop offset="0.0101" stop-color="#F408AB"/>
<stop offset="1" stop-color="#27B7FF"/>
</linearGradient>
<linearGradient id="paint5_linear_479_2973" x1="-228.608" y1="18.1166" x2="42.1914" y2="18.1166" gradientUnits="userSpaceOnUse">
<stop offset="0.0101" stop-color="#F408AB"/>
<stop offset="1" stop-color="#27B7FF"/>
</linearGradient>
</defs>
</svg>
